<svg width="476.4px" height="121.6px" xmlns="http://www.w3.org/2000/svg" viewBox="11.818743896484392 14.199996948242188 476.3625122070312 121.60000610351562" style="background: rgba(0, 0, 0, 0)" preserveAspectRatio="xMidYMid"><defs>
  <filter id="editing-scratch" x="-100%" y="-100%" width="300%" height="300%">
    <!-- COLOR -->
    <feFlood flood-color="#ddd" flood-opacity="0.75" result="COLOR-blu"></feFlood>
    <feFlood flood-color="#666" flood-opacity="0.4" result="COLOR-red"></feFlood>
    <!-- COLOR END -->

    <!-- Texture -->
    <feTurbulence baseFrequency=".05" type="fractalNoise" numOctaves="3" seed="0" result="Texture_10"></feTurbulence>
    <feColorMatrix type="matrix" values="0 0 0 0 0,
    0 0 0 0 0,
    0 0 0 0 0,
    0 0 0 -2.1 1.1" in="Texture_10" result="Texture_20"></feColorMatrix>

    <feColorMatrix result="Texture_30" type="matrix" values="0 0 0 0 0,
    0 0 0 0 0,
    0 0 0 0 0,
    0 0 0 -1.7 1.8" in="Texture_10"></feColorMatrix>
    <!-- Texture -->

    <!-- FILL -->
    <feOffset dx="-3" dy="4" in="SourceAlpha" result="FILL_10"></feOffset>
    <feDisplacementMap scale="17" in="FILL_10" in2="Texture_10" result="FILL_20"></feDisplacementMap>
    <feComposite operator="in" in="Texture_30" in2="FILL_20" result="FILL_40"></feComposite>
    <feComposite operator="in" in="COLOR-blu" in2="FILL_40" result="FILL_50"></feComposite>
    <!-- FILL END-->

    <!-- OUTLINE -->
    <feMorphology operator="dilate" radius="3" in="SourceGraphic" result="OUTLINE_10"></feMorphology>
    <feComposite operator="out" in="OUTLINE_10" in2="SourceGraphic" result="OUTLINE_20"></feComposite>
    <feDisplacementMap scale="7" in="OUTLINE_20" in2="Texture_10" result="OUTLINE_30"></feDisplacementMap>
    <feComposite operator="arithmetic" k2="-1" k3="1" in="Texture_20" in2="OUTLINE_30" result="OUTLINE_40"></feComposite>
    <!-- OUTLINE END-->

    <!-- BEVEL OUTLINE -->
    <feConvolveMatrix order="8,8" divisor="1" kernelMatrix="1 0 0 0 0 0 0 0 0 1 0 0 0 0 0 0 0 0 1 0 0 0 0 0 0 0 0 1 0 0 0 0 0 0 0 0 1 0 0 0 0 0 0 0 0 1 0 0 0 0 0 0 0 0 1 0 0 0 0 0 0 0 0 1 " in="SourceGraphic" result="BEVEL_10"></feConvolveMatrix>
    <feMorphology operator="dilate" radius="2" in="BEVEL_10" result="BEVEL_20"></feMorphology>
    <feComposite operator="out" in="BEVEL_20" in2="BEVEL_10" result="BEVEL_30"></feComposite>
    <feDisplacementMap scale="7" in="BEVEL_30" in2="Texture_10" result="BEVEL_40"></feDisplacementMap>
    <feComposite operator="arithmetic" k2="-1" k3="1" in="Texture_20" in2="BEVEL_40" result="BEVEL_50"></feComposite>
    <feOffset dx="-7" dy="-7" in="BEVEL_50" result="BEVEL_60"></feOffset>
    <feComposite operator="out" in="BEVEL_60" in2="OUTLINE_10" result="BEVEL_70"></feComposite>
    <!-- BEVEL OUTLINE END -->

    <!-- BEVEL FILL -->
    <feOffset dx="-9" dy="-9" in="BEVEL_10" result="BEVEL-FILL_10"></feOffset>
    <feComposite operator="out" in="BEVEL-FILL_10" in2="OUTLINE_10" result="BEVEL-FILL_20"></feComposite>
    <feDisplacementMap scale="17" in="BEVEL-FILL_20" in2="Texture_10" result="BEVEL-FILL_30"></feDisplacementMap>
    <feComposite operator="in" in="COLOR-red" in2="BEVEL-FILL_30" result="BEVEL-FILL_50"></feComposite> <!-- -->
    <!-- BEVEL FILL END-->

    <feMerge result="merge2">
     <feMergeNode in="BEVEL-FILL_50"></feMergeNode>
     <feMergeNode in="BEVEL_70"></feMergeNode>
     <feMergeNode in="FILL_50"></feMergeNode>
      <feMergeNode in="OUTLINE_40"></feMergeNode>
    </feMerge>
  </filter>
</defs>
<g filter="url(#editing-scratch)"><g transform="matrix(1.4,0,0,1.8,51.2,226.4)"><path d="M 6.4 -72.1 L 6.4 -72.1 L 6.4 -72.1 Q 6.4 -76.6 8.2 -85.5 L 8.2 -85.5 L -1.3 -85.5 L -4.8 -67.3 L -18.2 -67.3 L -10.1 -109.5 L 3.5 -109.5 L -0.3 -90.6 L 9.2 -90.6 L 12.7 -109.5 L 26.2 -109.5 L 26.2 -109.5 Q 25.3 -104.8 24.2 -99.5 L 24.2 -99.5 L 22 -89 L 22 -89 Q 19.6 -76.9 19.6 -71.6 L 19.6 -71.6 L 19.6 -71.6 Q 19.6 -69.4 20.3 -68.2 L 20.3 -68.2 L 20.3 -68.2 Q 17.1 -66 13.3 -66 L 13.3 -66 L 13.3 -66 Q 9.6 -66 8 -67.8 L 8 -67.8 L 8 -67.8 Q 6.4 -69.6 6.4 -72.1 Z M 30.6 -69.2 L 30.6 -69.2 L 30.6 -69.2 Q 29.1 -70.9 28.4 -73.5 L 28.4 -73.5 L 28.4 -73.5 Q 27.7 -76.1 27.7 -80.4 L 27.7 -80.4 L 27.7 -80.4 Q 27.7 -84.7 29.2 -88.6 L 29.2 -88.6 L 29.2 -88.6 Q 30.7 -92.5 33.3 -95.3 L 33.3 -95.3 L 33.3 -95.3 Q 38.8 -101.2 47.9 -101.2 L 47.9 -101.2 L 47.9 -101.2 Q 51.2 -101.2 53.6 -100.1 L 53.6 -100.1 L 64.5 -101.2 L 59.8 -76.2 L 59.8 -76.2 Q 59.6 -75.5 59.6 -74.1 L 59.6 -74.1 L 59.6 -74.1 Q 59.6 -72.7 60.4 -71.8 L 60.4 -71.8 L 60.4 -71.8 Q 61.3 -70.9 62.6 -70.7 L 62.6 -70.7 L 62.6 -70.7 Q 61.9 -68.6 59.6 -67.3 L 59.6 -67.3 L 59.6 -67.3 Q 57.3 -66 54.7 -66 L 54.7 -66 L 54.7 -66 Q 52 -66 50.3 -67 L 50.3 -67 L 50.3 -67 Q 48.5 -68 48 -69.7 L 48 -69.7 L 48 -69.7 Q 47 -68.1 44.8 -67 L 44.8 -67 L 44.8 -67 Q 42.6 -66 39.7 -66 L 39.7 -66 L 39.7 -66 Q 36.8 -66 34.4 -66.8 L 34.4 -66.8 L 34.4 -66.8 Q 32.1 -67.5 30.6 -69.2 Z M 44.1 -95.2 L 44.1 -95.2 L 44.1 -95.2 Q 43.3 -94 42.7 -92.1 L 42.7 -92.1 L 42.7 -92.1 Q 42 -90.1 41 -84.9 L 41 -84.9 L 41 -84.9 Q 39.9 -79.7 39.9 -76 L 39.9 -76 L 39.9 -76 Q 39.9 -72.3 40.5 -71.2 L 40.5 -71.2 L 40.5 -71.2 Q 41.1 -70.1 42.1 -70.1 L 42.1 -70.1 L 42.1 -70.1 Q 44.2 -70.1 45.7 -72.1 L 45.7 -72.1 L 45.7 -72.1 Q 47.2 -74 47.7 -77.5 L 47.7 -77.5 L 51.1 -96.2 L 51.1 -96.2 Q 49.8 -97.4 48.2 -97.4 L 48.2 -97.4 L 48.2 -97.4 Q 46.7 -97.4 45.7 -96.9 L 45.7 -96.9 L 45.7 -96.9 Q 44.8 -96.3 44.1 -95.2 Z M 88 -85.3 L 88 -85.3 L 88 -85.3 Q 90.3 -89.4 90.3 -93.5 L 90.3 -93.5 L 90.3 -93.5 Q 90.3 -96.3 88.3 -96.3 L 88.3 -96.3 L 88.3 -96.3 Q 86.8 -96.3 85.2 -93.7 L 85.2 -93.7 L 85.2 -93.7 Q 83.5 -91 83 -87.6 L 83 -87.6 L 79.7 -67.3 L 66.4 -66 L 73 -99.9 L 83.5 -101.2 L 82.4 -94.7 L 82.4 -94.7 Q 85.5 -101.2 92.5 -101.2 L 92.5 -101.2 L 92.5 -101.2 Q 96.3 -101.2 98.3 -99.3 L 98.3 -99.3 L 98.3 -99.3 Q 100.3 -97.4 100.3 -93.4 L 100.3 -93.4 L 100.3 -93.4 Q 100.3 -89.5 97.7 -87 L 97.7 -87 L 97.7 -87 Q 95.1 -84.5 90.7 -84.5 L 90.7 -84.5 L 90.7 -84.5 Q 88.8 -84.5 88 -85.3 Z M 124.5 -98.8 L 124.5 -98.8 L 124.5 -98.8 Q 126.7 -101.2 130.3 -101.2 L 130.3 -101.2 L 130.3 -101.2 Q 132.5 -101.2 134.3 -100 L 134.3 -100 L 134.3 -100 Q 136 -98.8 136 -96.5 L 136 -96.5 L 136 -96.5 Q 136 -94.2 135.3 -91.8 L 135.3 -91.8 L 135.3 -91.8 Q 134.6 -89.4 133.5 -86.9 L 133.5 -86.9 L 133.5 -86.9 Q 131.3 -82 128.3 -78 L 128.3 -78 L 128.3 -78 Q 124.1 -72.1 120 -69.1 L 120 -69.1 L 120 -69.1 Q 116 -66 111.5 -66 L 111.5 -66 L 111.5 -66 Q 108 -66 105.8 -66.8 L 105.8 -66.8 L 105.8 -66.8 Q 105.4 -80.3 104.9 -85.1 L 104.9 -85.1 L 104.9 -85.1 Q 104.4 -89.9 104.1 -92.5 L 104.1 -92.5 L 104.1 -92.5 Q 103.4 -97.6 101.5 -98.8 L 101.5 -98.8 L 101.5 -98.8 Q 103 -100.1 104.4 -100.7 L 104.4 -100.7 L 104.4 -100.7 Q 105.9 -101.2 108.8 -101.2 L 108.8 -101.2 L 108.8 -101.2 Q 111.8 -101.2 113.9 -98.9 L 113.9 -98.9 L 113.9 -98.9 Q 116 -96.5 116.4 -92.4 L 116.4 -92.4 L 116.4 -92.4 Q 116.9 -88.3 116.9 -83.3 L 116.9 -83.3 L 116.9 -83.3 Q 116.9 -78.3 116.5 -72.3 L 116.5 -72.3 L 116.5 -72.3 Q 118.5 -73.7 120.6 -78 L 120.6 -78 L 120.6 -78 Q 123.5 -83.9 124.5 -91.1 L 124.5 -91.1 L 124.5 -91.1 Q 124.8 -93.3 124.8 -95.6 L 124.8 -95.6 L 124.8 -95.6 Q 124.8 -97.9 124.5 -98.8 Z M 163.6 -78.1 L 163.6 -78.1 L 163.6 -78.1 Q 165.2 -77 165.2 -74.6 L 165.2 -74.6 L 165.2 -74.6 Q 165.2 -72.2 164 -70.7 L 164 -70.7 L 164 -70.7 Q 162.8 -69.1 160.8 -68.1 L 160.8 -68.1 L 160.8 -68.1 Q 156.7 -66 152.3 -66 L 152.3 -66 L 152.3 -66 Q 147.9 -66 145.3 -67 L 145.3 -67 L 145.3 -67 Q 142.7 -67.9 141 -69.7 L 141 -69.7 L 141 -69.7 Q 137.6 -73.1 137.6 -79.3 L 137.6 -79.3 L 137.6 -79.3 Q 137.6 -89 142.8 -94.9 L 142.8 -94.9 L 142.8 -94.9 Q 148.5 -101.2 158.3 -101.2 L 158.3 -101.2 L 158.3 -101.2 Q 164.3 -101.2 167.4 -98.6 L 167.4 -98.6 L 167.4 -98.6 Q 169.6 -96.7 169.6 -93.6 L 169.6 -93.6 L 169.6 -93.6 Q 169.6 -82.3 150.1 -82.3 L 150.1 -82.3 L 150.1 -82.3 Q 149.9 -80.7 149.9 -79.3 L 149.9 -79.3 L 149.9 -79.3 Q 149.9 -76.3 151.2 -75.2 L 151.2 -75.2 L 151.2 -75.2 Q 152.5 -74.1 154.9 -74.1 L 154.9 -74.1 L 154.9 -74.1 Q 157.4 -74.1 160 -75.2 L 160 -75.2 L 160 -75.2 Q 162.6 -76.3 163.6 -78.1 Z M 150.6 -85.1 L 150.6 -85.1 L 150.6 -85.1 Q 155.1 -85.1 157.8 -87.9 L 157.8 -87.9 L 157.8 -87.9 Q 160.4 -90.6 160.4 -94.9 L 160.4 -94.9 L 160.4 -94.9 Q 160.4 -96.3 159.8 -97.1 L 159.8 -97.1 L 159.8 -97.1 Q 159.3 -97.9 158.2 -97.9 L 158.2 -97.9 L 158.2 -97.9 Q 157.1 -97.9 156.2 -97.5 L 156.2 -97.5 L 156.2 -97.5 Q 155.3 -97.1 154.3 -95.7 L 154.3 -95.7 L 154.3 -95.7 Q 151.9 -92.5 150.6 -85.1 Z M 192.1 -74.5 L 192.1 -74.5 L 192.1 -74.5 Q 188.8 -71.1 182.7 -71.1 L 182.7 -71.1 L 182.7 -71.1 Q 175.1 -71.1 173.5 -76.6 L 173.5 -76.6 L 173.5 -76.6 Q 173 -78.3 173 -80.1 L 173 -80.1 L 173 -80.1 Q 173 -82 173.4 -83.9 L 173.4 -83.9 L 176.4 -99.9 L 189.4 -101.2 L 185.9 -82.6 L 185.9 -82.6 Q 185.7 -81.7 185.5 -80.9 L 185.5 -80.9 L 185.5 -80.9 Q 185.3 -80 185.3 -79 L 185.3 -79 L 185.3 -79 Q 185.3 -78.1 185.7 -77.5 L 185.7 -77.5 L 185.7 -77.5 Q 186 -76.9 186.4 -76.5 L 186.4 -76.5 L 186.4 -76.5 Q 187.2 -76 188.6 -76 L 188.6 -76 L 188.6 -76 Q 189.9 -76 191.1 -77.7 L 191.1 -77.7 L 191.1 -77.7 Q 192.3 -79.3 192.9 -82.2 L 192.9 -82.2 L 196.4 -99.9 L 209 -101.2 L 204.2 -76.1 L 204.2 -76.1 Q 201.9 -63.8 197 -58.9 L 197 -58.9 L 197 -58.9 Q 194.5 -56.4 191.3 -55.4 L 191.3 -55.4 L 191.3 -55.4 Q 188 -54.4 183.9 -54.4 L 183.9 -54.4 L 183.9 -54.4 Q 177.1 -54.4 173.3 -56.5 L 173.3 -56.5 L 173.3 -56.5 Q 169.5 -58.6 169.5 -62.2 L 169.5 -62.2 L 169.5 -62.2 Q 169.5 -64.8 171.5 -66.3 L 171.5 -66.3 L 171.5 -66.3 Q 173.4 -67.8 176.5 -67.8 L 176.5 -67.8 L 176.5 -67.8 Q 179.2 -67.8 181.2 -66.6 L 181.2 -66.6 L 181.2 -66.6 Q 182.5 -65.9 183 -65 L 183 -65 L 183 -65 Q 181.6 -63.8 181.6 -61.7 L 181.6 -61.7 L 181.6 -61.7 Q 181.6 -58.8 184.1 -58.8 L 184.1 -58.8 L 184.1 -58.8 Q 188.3 -58.8 190.8 -68.6 L 190.8 -68.6 L 190.8 -68.6 Q 191.5 -71.4 192.1 -74.5 Z M 226.5 -107.2 L 226.5 -107.2 L 226.5 -107.2 Q 229.5 -110.7 234.5 -110.7 L 234.5 -110.7 L 234.5 -110.7 Q 238.5 -110.7 240.6 -109.1 L 240.6 -109.1 L 240.6 -109.1 Q 242.7 -107.5 244.1 -103.6 L 244.1 -103.6 L 246.8 -96 L 256.4 -109.5 L 265.1 -109.5 L 249.4 -88.7 L 253.4 -77.3 L 253.4 -77.3 Q 254.3 -74.7 255.9 -72.8 L 255.9 -72.8 L 255.9 -72.8 Q 257.5 -70.9 258.9 -70.6 L 258.9 -70.6 L 258.9 -70.6 Q 257.6 -68.2 255.4 -67.1 L 255.4 -67.1 L 255.4 -67.1 Q 253.2 -66 249.9 -66 L 249.9 -66 L 249.9 -66 Q 246.7 -66 244.4 -68.1 L 244.4 -68.1 L 244.4 -68.1 Q 242.2 -70.2 240.4 -75 L 240.4 -75 L 238.6 -80.1 L 228.9 -67.3 L 221.1 -67.3 L 235.8 -87.7 L 231.2 -100.6 L 231.2 -100.6 Q 230.1 -103.4 229.1 -104.8 L 229.1 -104.8 L 229.1 -104.8 Q 228.1 -106.3 226.5 -107.2 Z M 278.6 -70.8 L 278.6 -70.8 L 278.6 -70.8 Q 276.6 -66 270.3 -66 L 270.3 -66 L 270.3 -66 Q 267 -66 265 -68.2 L 265 -68.2 L 265 -68.2 Q 263.2 -70.2 263.2 -72.2 L 263.2 -72.2 L 263.2 -72.2 Q 263.2 -77.4 265.6 -87.5 L 265.6 -87.5 L 268 -99.9 L 281 -101.2 L 277.1 -81 L 277.1 -81 Q 276 -76.2 276 -74.6 L 276 -74.6 L 276 -74.6 Q 276 -70.9 278.6 -70.8 Z M 269.1 -108.8 L 269.1 -108.8 L 269.1 -108.8 Q 269.1 -111.3 271.2 -112.7 L 271.2 -112.7 L 271.2 -112.7 Q 273.3 -114 276.3 -114 L 276.3 -114 L 276.3 -114 Q 279.3 -114 281.1 -112.7 L 281.1 -112.7 L 281.1 -112.7 Q 282.9 -111.3 282.9 -108.8 L 282.9 -108.8 L 282.9 -108.8 Q 282.9 -106.3 280.9 -105 L 280.9 -105 L 280.9 -105 Q 278.9 -103.8 275.9 -103.8 L 275.9 -103.8 L 275.9 -103.8 Q 272.9 -103.8 271 -105 L 271 -105 L 271 -105 Q 269.1 -106.3 269.1 -108.8 Z M 309.9 -78.1 L 309.9 -78.1 L 309.9 -78.1 Q 311.5 -77 311.5 -74.6 L 311.5 -74.6 L 311.5 -74.6 Q 311.5 -72.2 310.3 -70.7 L 310.3 -70.7 L 310.3 -70.7 Q 309.1 -69.1 307.1 -68.1 L 307.1 -68.1 L 307.1 -68.1 Q 303 -66 298.6 -66 L 298.6 -66 L 298.6 -66 Q 294.2 -66 291.6 -67 L 291.6 -67 L 291.6 -67 Q 289 -67.9 287.3 -69.7 L 287.3 -69.7 L 287.3 -69.7 Q 283.9 -73.1 283.9 -79.3 L 283.9 -79.3 L 283.9 -79.3 Q 283.9 -89 289.1 -94.9 L 289.1 -94.9 L 289.1 -94.9 Q 294.8 -101.2 304.6 -101.2 L 304.6 -101.2 L 304.6 -101.2 Q 310.7 -101.2 313.7 -98.6 L 313.7 -98.6 L 313.7 -98.6 Q 315.9 -96.7 315.9 -93.6 L 315.9 -93.6 L 315.9 -93.6 Q 315.9 -82.3 296.4 -82.3 L 296.4 -82.3 L 296.4 -82.3 Q 296.2 -80.7 296.2 -79.3 L 296.2 -79.3 L 296.2 -79.3 Q 296.2 -76.3 297.5 -75.2 L 297.5 -75.2 L 297.5 -75.2 Q 298.8 -74.1 301.2 -74.1 L 301.2 -74.1 L 301.2 -74.1 Q 303.7 -74.1 306.3 -75.2 L 306.3 -75.2 L 306.3 -75.2 Q 308.9 -76.3 309.9 -78.1 Z M 296.9 -85.1 L 296.9 -85.1 L 296.9 -85.1 Q 301.4 -85.1 304.1 -87.9 L 304.1 -87.9 L 304.1 -87.9 Q 306.7 -90.6 306.7 -94.9 L 306.7 -94.9 L 306.7 -94.9 Q 306.7 -96.3 306.1 -97.1 L 306.1 -97.1 L 306.1 -97.1 Q 305.6 -97.9 304.5 -97.9 L 304.5 -97.9 L 304.5 -97.9 Q 303.4 -97.9 302.5 -97.5 L 302.5 -97.5 L 302.5 -97.5 Q 301.6 -97.1 300.6 -95.7 L 300.6 -95.7 L 300.6 -95.7 Q 298.2 -92.5 296.9 -85.1 Z" fill="#000000"></path></g></g></svg>